<svg width="63" height="43" viewBox="0 0 63 43" fill="none" xmlns="http://www.w3.org/2000/svg">
<g id="Layer 1">
<g id="Group">
<path id="Vector" opacity="0.97" d="M2 26.7673V39.8535C2 40.8394 2.811 41.6496 3.79771 41.6496H33.1017C34.0884 41.6496 34.8994 40.8394 34.8994 39.8535V20.7711C34.8994 19.7853 34.0884 18.975 33.1017 18.975H6.0685C4.50057 18.975 3.68958 17.1248 4.74387 15.9634L18.8958 2.83666C19.5175 2.14791 20.5583 2.05338 21.3017 2.60708L60.2836 32.3988C60.7297 32.7364 61 33.2631 61 33.8303V39.8265C61 40.8123 60.189 41.6226 59.2023 41.6226H45.2126C44.2259 41.6226 43.4149 40.8123 43.4149 39.8265V1" stroke="#F1F2F2" stroke-width="2.5" stroke-miterlimit="10"/>
</g>
</g>
</svg>
