<svg xmlns="http://www.w3.org/2000/svg" width="148" height="81" viewBox="0 0 148 81" fill="none">
  <g clip-path="url(#clip0_30_51)">
    <path d="M57.4964 49.5872C57.405 45.9933 55.5317 42.6268 53.407 39.3513C52.2419 37.5998 50.8026 35.9848 49.0891 34.5746C47.3757 33.1415 45.548 31.8222 43.5833 30.5712C41.6414 29.3201 39.6538 28.1146 37.6891 27C35.7015 25.8399 33.8282 24.6799 32.0919 23.5425C30.3328 22.3597 28.8249 21.1314 27.5227 19.8804C26.2205 18.6066 25.3067 17.219 24.7812 15.7178C24.2101 14.1028 24.0045 12.4423 24.1872 10.6681C24.37 8.9166 24.8726 7.3016 25.6722 5.84583C26.4947 4.39006 27.5684 3.1845 28.9163 2.2519C30.2642 1.31929 31.8406 0.864364 33.5997 0.864364C34.8562 0.864364 36.0442 1.13732 37.1636 1.70598C38.2831 2.27464 39.2426 3.07077 40.1107 4.1171C40.9789 5.14069 41.6414 6.41449 42.0983 7.91575C42.5781 9.43976 42.7837 11.1457 42.738 13.0792L49.4775 13.1474C48.9978 10.5998 48.1982 8.50716 47.0787 6.82393C45.9593 5.11794 44.6571 3.77591 43.1721 2.75232C41.6871 1.75147 40.0879 1.02359 38.443 0.614153C36.7524 0.204718 35.1304 0 33.5083 0H33.4169C31.5436 0 29.6017 0.341196 27.6141 1.02359C25.6037 1.72873 23.8217 2.77506 22.2453 4.18534C20.6918 5.59562 19.4582 7.3016 18.59 9.30329C17.699 11.3505 17.402 13.6933 17.7219 16.3319C17.996 18.4473 18.7499 20.358 20.0065 22.0413C21.2401 23.7245 22.7708 25.2713 24.5756 26.6815C26.3576 28.0918 28.368 29.4111 30.5612 30.6849C32.7544 31.9587 34.9019 33.2553 37.0037 34.5746C39.1055 35.8938 41.0703 37.3041 42.8979 38.8054C44.7256 40.3294 46.2106 42.0126 47.3757 43.8778C47.6955 44.4238 48.0154 44.9697 48.2667 45.5383C48.5865 46.198 48.8607 46.8576 49.112 47.54C49.112 47.54 51.8078 47.6992 53.4298 49.246C53.5212 49.337 53.6355 49.4507 53.7268 49.5644C53.8182 49.7237 53.9096 49.8147 54.0238 49.9284C54.0924 50.0194 54.1381 50.0876 54.1838 50.1559C54.6635 50.8382 54.9834 51.6344 55.2347 52.567C55.3946 53.0901 55.5088 53.6361 55.623 54.2502C55.623 54.3412 55.6687 54.4094 55.6687 54.4549V54.4777C55.8515 55.3648 56.0343 56.3884 56.2399 57.503C56.8567 55.4103 57.5421 53.5678 57.4507 49.5644L57.4964 49.5872ZM35.0618 38.8964C34.9933 38.6689 34.8334 38.5324 34.5592 38.4187C32.8001 37.6453 30.8582 37.0084 28.7792 36.5535C26.7003 36.0758 24.5071 35.8484 22.2682 35.8484C19.778 35.8484 17.2878 36.2123 14.8205 36.9402C12.3303 37.6908 10.0914 38.8964 8.03526 40.6024C5.59076 42.604 3.69456 45.0834 2.32381 47.9949C0.975908 50.9065 0.221997 53.909 0.0392311 57.0253C-0.143535 60.1188 0.313381 63.1896 1.38713 66.1693C2.48373 69.1491 4.28855 71.6967 6.77874 73.8349C9.58877 76.2233 12.81 77.9975 16.4654 79.203C20.1207 80.4086 23.8902 81 27.7969 81C29.7388 81 31.635 80.8635 33.5083 80.5678C33.4398 80.5451 33.3941 80.4996 33.3484 80.4768C32.9829 80.2266 32.6402 79.9309 32.3203 79.658C30.2414 80.0901 28.0253 80.2266 25.6265 80.0901C22.5423 79.8627 19.8008 79.2258 17.3792 78.1339C14.9575 77.0421 12.9014 75.5636 11.2565 73.6757C9.58877 71.7877 8.30941 69.5358 7.39558 66.9427C6.50459 64.3496 6.04767 61.4836 6.04767 58.2991C6.04767 54.8416 6.39036 51.8163 7.09858 49.246C7.8068 46.6757 8.76632 44.5147 10.0228 42.7633C11.2794 41.0118 12.7643 39.6243 14.4778 38.6689C16.2141 37.7136 18.1103 37.0994 20.2121 36.8492C22.7023 36.6445 25.1011 36.8492 27.3856 37.5088C29.6702 38.1685 31.8406 38.9874 33.8738 40.0564C34.445 40.3749 34.8334 40.2384 35.039 39.647C35.1304 39.3968 35.1532 39.1466 35.0618 38.9646V38.8964Z" fill="#E5E4ED"/>
    <path d="M68.5767 19.8576C68.1883 18.2199 67.6172 16.7641 66.8633 15.4903C66.1094 14.2165 65.1955 13.1929 64.0989 12.4196C63.0252 11.6689 61.7687 11.2595 60.3979 11.2595C59.0272 11.2595 57.7707 11.6462 56.6741 12.4196C55.5775 13.1702 54.6636 14.2165 53.9097 15.4903C53.1558 16.7641 52.6075 18.2199 52.2191 19.8576C51.8308 21.4954 51.648 23.1786 51.648 24.9073C51.648 26.4996 51.8079 28.0464 52.1506 29.5931C52.4933 31.1399 52.973 32.5274 53.6127 33.7557C54.2524 35.0068 55.052 36.0303 55.9887 36.8947C56.9254 37.7363 58.022 38.2595 59.2556 38.487C57.9534 38.6007 56.7426 39.1239 55.6689 40.0792L55.8745 40.5114C56.3999 40.1247 56.8797 39.8745 57.3594 39.738C57.8164 39.5788 58.2504 39.5333 58.7073 39.5333C59.1643 39.5333 59.5526 39.5788 59.9639 39.6698C60.3751 39.7608 60.7863 39.8745 61.1518 39.9882C61.5402 40.1247 61.9058 40.2157 62.317 40.3294C62.7054 40.4204 63.0709 40.4659 63.4364 40.4659C63.939 40.4659 64.4416 40.3522 64.9214 40.1247C65.424 39.8745 65.9266 39.4196 66.4521 38.7599L66.1094 38.4415C65.8352 38.7144 65.5611 38.9419 65.2412 39.0556C64.9442 39.1693 64.6016 39.2376 64.2589 39.2376C63.7563 39.2376 63.2308 39.1466 62.6597 38.9874C62.1114 38.8281 61.5402 38.7144 60.9919 38.6007C62.2941 38.5097 63.4593 38.032 64.4873 37.1904C65.5154 36.3715 66.3607 35.3025 67.0461 34.0287C67.7314 32.7776 68.234 31.3218 68.5996 29.7523C68.9651 28.1828 69.125 26.5906 69.125 24.9756C69.125 23.2469 68.9423 21.5409 68.5539 19.9031L68.5767 19.8576ZM65.1499 29.9116C64.8986 31.5266 64.533 32.9141 64.0761 34.1424C63.6192 35.3707 63.0709 36.326 62.4541 37.0539C61.8372 37.7818 61.129 38.1458 60.3979 38.1458C59.6669 38.1458 59.0043 37.8046 58.3875 37.0994C57.7478 36.3943 57.1995 35.4389 56.7426 34.2334C56.2628 33.0278 55.8973 31.6175 55.6232 30.0025C55.349 28.3875 55.2348 26.7043 55.2348 24.8846C55.2348 23.0649 55.3719 21.3816 55.6232 19.7667C55.8973 18.1517 56.2628 16.7641 56.6969 15.5813C57.1538 14.3985 57.7021 13.4431 58.3647 12.7608C59.0043 12.0556 59.6669 11.6917 60.3979 11.6917C61.129 11.6917 61.8144 12.0556 62.4312 12.7608C63.048 13.4659 63.5963 14.4212 64.0533 15.6496C64.5102 16.8551 64.8757 18.2426 65.127 19.8576C65.4012 21.4726 65.5154 23.1331 65.5154 24.8846C65.5154 26.6361 65.3783 28.3193 65.127 29.8888L65.1499 29.9116Z" fill="#E5E4ED"/>
    <path d="M85.5283 11.2822V11.7372C86.0309 11.8281 86.2822 12.1011 86.2822 12.556V33.5965C86.2822 34.3698 86.1451 35.0295 85.8481 35.6209C85.5511 36.1896 85.1399 36.6445 84.6601 37.0312C84.1575 37.3951 83.5635 37.6681 82.8782 37.8728C82.1928 38.0775 81.5074 38.1685 80.7535 38.1685C79.1772 38.1685 78.0806 37.6908 77.4637 36.7355C76.824 35.7574 76.5271 34.4381 76.5271 32.7548V12.556C76.5271 12.3286 76.5956 12.1466 76.687 12.0101C76.7784 11.8736 76.984 11.7826 77.281 11.7372V11.2822H72.1407V11.7372C72.4833 11.7826 72.6661 11.8964 72.7803 12.0101C72.8717 12.1466 72.9403 12.3286 72.9403 12.556V32.6411C72.9403 33.9377 73.2144 34.984 73.7399 35.7574C74.2653 36.5308 74.9278 37.1449 75.7274 37.5543C76.5042 37.9865 77.3495 38.2595 78.2633 38.396C79.1543 38.5324 79.9996 38.6007 80.7764 38.6007C81.416 38.6007 82.0786 38.5097 82.7868 38.3277C83.495 38.1685 84.1347 37.8728 84.7058 37.4634C85.2998 37.0767 85.7796 36.5535 86.168 35.9166C86.5563 35.2797 86.7391 34.4836 86.7391 33.5737V12.556C86.7391 12.1011 86.9904 11.8054 87.493 11.7372V11.2822H85.5511H85.5283Z" fill="#E5E4ED"/>
    <path d="M106.866 37.5998C106.752 37.4861 106.683 37.3951 106.661 37.2814L98.5275 11.2595H98.0478C97.9564 11.6007 97.7279 12.2603 97.4081 13.2839C97.0883 14.3075 96.6999 15.5131 96.2887 16.9006C95.8317 18.2881 95.3977 19.7667 94.9179 21.2907C94.4382 22.8147 93.9812 24.2249 93.57 25.5442C93.1816 26.8408 92.8161 27.9326 92.542 28.797C92.2678 29.6841 92.1079 30.1618 92.085 30.2528C91.6281 31.754 91.194 33.1415 90.7828 34.3699C90.3944 35.5982 90.0975 36.5535 89.8918 37.2586C89.8918 37.3496 89.8005 37.4634 89.6862 37.5771C89.6177 37.6681 89.5263 37.7818 89.3892 37.8955C89.275 37.9865 89.1151 38.0775 88.9323 38.123V38.5779H91.2854V38.123C90.8971 37.9638 90.6457 37.7818 90.5315 37.5998C90.4173 37.3951 90.3488 37.2586 90.3259 37.2132C90.8285 35.6664 91.3311 34.0514 91.8337 32.4137C92.2906 31.0034 92.7704 29.4794 93.2959 27.7961C93.8213 26.1356 94.3239 24.5207 94.8265 22.9511C95.9688 23.0194 96.9512 23.3378 97.7736 23.952C98.5961 24.5661 99.2129 25.4987 99.6013 26.7498C99.9211 27.7961 100.241 28.8425 100.584 29.8888C100.926 30.9579 101.223 31.9132 101.52 32.8686C101.817 33.8012 102.091 34.6656 102.32 35.4389C102.571 36.1896 102.777 36.8265 102.914 37.3041C102.914 37.4406 102.845 37.5771 102.8 37.7136C102.754 37.8728 102.571 37.9865 102.274 38.123V38.5779H107.574V38.123C107.277 37.9865 107.049 37.8046 106.866 37.5771V37.5998ZM97.1568 23.1104C96.4943 22.7919 95.7632 22.5872 94.9864 22.5417C95.3291 21.4271 95.6261 20.4263 95.9231 19.5164C96.1973 18.5838 96.4486 17.856 96.6313 17.2645C96.677 17.4693 96.7913 17.8105 96.9283 18.2654C97.0883 18.7203 97.2482 19.2662 97.4538 19.8804C97.6594 20.5173 97.8879 21.2452 98.1392 22.0185C98.3905 22.7919 98.6646 23.6335 98.9159 24.4979C98.4362 23.8838 97.8422 23.4288 97.1796 23.1104H97.1568Z" fill="#E5E4ED"/>
    <path d="M130.078 38.032C128.775 38.1685 127.747 38.0093 127.039 37.5316C126.331 37.0767 125.783 36.4625 125.417 35.6664C125.029 34.893 124.777 34.0059 124.617 33.0278C124.458 32.0497 124.275 31.0944 124.092 30.1618C123.749 28.524 123.361 27.182 122.858 26.1356C122.379 25.112 121.83 24.3159 121.236 23.7473C120.665 23.1786 120.048 22.8147 119.431 22.6327C118.815 22.4735 118.243 22.4052 117.695 22.4507C118.358 22.064 118.997 21.6318 119.66 21.1542C120.322 20.6992 120.916 20.1988 121.419 19.6757C121.922 19.1525 122.356 18.6066 122.676 18.0152C122.995 17.4465 123.155 16.8324 123.201 16.1955C123.201 15.1946 122.995 14.3757 122.447 13.7388C121.922 13.1019 121.259 12.6243 120.414 12.2376C119.591 11.8736 118.632 11.6234 117.604 11.4869C116.553 11.3732 115.571 11.2822 114.565 11.2822H109.791V11.7372C110.042 11.7826 110.225 11.8736 110.362 11.9874C110.499 12.1238 110.567 12.3058 110.567 12.556V37.3041C110.567 37.5771 110.499 37.7591 110.385 37.8728C110.27 38.0093 110.065 38.1003 109.813 38.1685V38.6234H114.931V38.1685C114.451 38.0775 114.2 37.8273 114.177 37.4179V24.3614C114.474 24.2249 114.771 24.0885 115.114 23.9292C115.456 23.77 115.822 23.588 116.187 23.3606C116.941 23.1559 117.581 23.2696 118.038 23.7473C118.495 24.2249 118.883 24.8618 119.203 25.7489C119.546 26.6361 119.797 27.6596 120.048 28.8197C120.277 30.0025 120.574 31.2081 120.871 32.4137C121.442 34.711 122.356 36.326 123.567 37.2359C124.777 38.1458 126.308 38.6007 128.136 38.6007C128.753 38.6007 129.415 38.5552 130.123 38.4869V38.032H130.078ZM116.53 22.337C115.89 22.9739 115.091 23.5198 114.154 23.9747V11.7144C114.817 11.7144 115.456 11.8054 116.073 12.0101C116.69 12.2148 117.238 12.5105 117.718 12.8972C118.175 13.2839 118.563 13.7843 118.837 14.3985C119.112 15.0126 119.249 15.7178 119.249 16.5594C119.249 17.0598 119.157 17.6285 118.975 18.2881C118.792 18.9478 118.518 19.6302 118.106 20.3126C117.718 20.9949 117.17 21.6773 116.53 22.3142V22.337Z" fill="#E5E4ED"/>
    <path d="M145.887 35.8256C145.887 36.0076 145.887 36.2123 145.818 36.508C145.75 36.781 145.681 37.0312 145.59 37.2586C145.498 37.5316 145.384 37.7136 145.201 37.8955C145.042 38.0548 144.859 38.1458 144.653 38.1458H136.703V22.6554H140.998C141.341 22.6554 141.638 22.8602 141.866 23.2469C142.094 23.6335 142.209 24.043 142.209 24.4297H142.597V20.3808H142.209C142.209 20.7675 142.094 21.1542 141.866 21.5636C141.66 21.973 141.363 22.1778 140.975 22.1778H136.68V11.7144H143.305C143.465 11.7144 143.602 11.8054 143.762 11.9419C143.922 12.1011 144.036 12.3058 144.151 12.5333C144.265 12.7835 144.356 13.0337 144.425 13.2839C144.493 13.5569 144.516 13.7843 144.516 13.9891H144.904V11.2367H132.271V11.6917C132.568 11.7827 132.773 11.8509 132.91 11.9646C133.025 12.0556 133.07 12.2376 133.07 12.5105V37.2586C133.07 37.5316 133.002 37.7136 132.865 37.8273C132.728 37.9638 132.522 38.0548 132.271 38.123V38.5779H146.184V35.8029H145.818L145.887 35.8256Z" fill="#E5E4ED"/>
    <path d="M64.6244 50.1786C64.7158 50.0421 64.9214 49.9511 65.2641 49.8829V49.4735H60.3065V49.8829C60.8092 49.9966 61.0376 50.2468 61.0376 50.7018V74.5173C61.0148 74.7447 60.9691 74.9267 60.8548 75.0632C60.7635 75.1997 60.5807 75.2679 60.3065 75.3361V75.7456H65.2641V75.3361C64.7615 75.2224 64.4873 74.9495 64.4873 74.4945V50.7245C64.4873 50.5198 64.533 50.3378 64.6244 50.2241V50.1786Z" fill="#E5E4ED"/>
    <path d="M75.7275 49.4735C74.905 49.4735 74.1054 49.6554 73.3286 50.0421C72.5519 50.4288 71.8665 50.9065 71.2954 51.5434C70.7242 52.1575 70.2902 52.8854 69.9932 53.7043C69.719 54.5232 69.6505 55.4103 69.7876 56.3201C69.9246 57.23 70.3358 58.1626 71.0212 59.0952C71.6838 60.0278 72.689 60.9377 74.014 61.802C74.8365 62.3479 75.6361 62.8939 76.4585 63.4853C77.2581 64.0767 77.9663 64.7363 78.5603 65.4642C79.1315 66.1693 79.5884 67.011 79.9082 67.9436C80.2052 68.8762 80.2738 69.9225 80.091 71.0826C79.9539 71.8104 79.7026 72.4473 79.3371 73.016C78.9716 73.5619 78.5146 74.0168 77.9892 74.358C77.4409 74.6992 76.8469 74.9722 76.2072 75.1314C75.5447 75.2906 74.8593 75.3361 74.1511 75.2906C73.6028 75.2224 73.1002 75.0859 72.5747 74.8357C72.0721 74.5855 71.6381 74.2443 71.2725 73.8121C70.8841 73.4027 70.5872 72.9023 70.3587 72.3564C70.1531 71.8104 70.0617 71.1735 70.0617 70.5366L67.343 70.3547C67.5715 71.31 67.937 72.1289 68.4168 72.8113C68.8966 73.4937 69.4677 74.0623 70.1302 74.4718C70.7928 74.904 71.4781 75.2224 72.2549 75.4271C73.0317 75.6318 73.7856 75.7228 74.5623 75.7228C76.2986 75.7228 77.7836 75.4499 79.0629 74.8357C80.3195 74.1988 81.3018 73.4027 82.01 72.4246C82.7183 71.4465 83.1523 70.3547 83.3123 69.1491C83.4722 67.9436 83.3351 66.738 82.9239 65.5324C82.467 64.3041 81.7816 63.2805 80.8678 62.4844C79.9311 61.6655 78.9716 60.9149 77.9435 60.2553C76.9154 59.5729 75.9559 58.9132 75.0649 58.2536C74.1739 57.5939 73.5114 56.7978 73.123 55.888C72.9174 55.433 72.826 54.8644 72.826 54.182C72.826 53.5223 72.9631 52.8627 73.1687 52.2485C73.3972 51.6116 73.717 51.0885 74.1511 50.6335C74.5852 50.1786 75.1335 49.9284 75.796 49.8829H86.6021V74.5173C86.5792 74.722 86.5107 74.904 86.4193 75.0404C86.3279 75.1769 86.1451 75.2679 85.871 75.3361V75.7456H90.8285V75.3361C90.3259 75.2224 90.0518 74.9495 90.0518 74.449V49.9056H95.1464C95.3291 49.9056 95.4891 49.9739 95.649 50.1559C95.8089 50.3151 95.946 50.5198 96.0374 50.7473C96.1287 50.9747 96.2201 51.2249 96.2658 51.4751C96.3344 51.7254 96.3344 51.9301 96.3344 52.112H96.7227V49.4962H75.7046L75.7275 49.4735Z" fill="#E5E4ED"/>
    <path d="M112.852 57.7077C112.486 56.1382 111.938 54.7279 111.23 53.4996C110.522 52.2713 109.631 51.2932 108.58 50.5653C107.529 49.8374 106.341 49.4735 104.993 49.4735C103.645 49.4735 102.48 49.8374 101.429 50.5653C100.378 51.3159 99.4871 52.294 98.7789 53.4996C98.0706 54.7279 97.5223 56.1154 97.134 57.7077C96.7684 59.2772 96.5857 60.9149 96.5857 62.5527C96.5857 64.1904 96.7684 65.8054 97.134 67.3976C97.5223 68.9671 98.0478 70.3547 98.756 71.6057C99.4642 72.8568 100.332 73.8576 101.383 74.5855C102.434 75.3361 103.645 75.7228 104.993 75.7228C106.341 75.7228 107.574 75.3361 108.603 74.5855C109.653 73.8121 110.544 72.8113 111.23 71.5602C111.938 70.3092 112.486 68.9217 112.852 67.3521C113.24 65.7826 113.4 64.2131 113.4 62.5981C113.4 60.9832 113.217 59.2999 112.852 57.7077ZM109.585 67.3976C109.334 68.9216 108.991 70.2864 108.557 71.4465C108.123 72.6293 107.597 73.5619 106.98 74.2671C106.364 74.9722 105.701 75.3134 104.993 75.3134C104.285 75.3134 103.668 74.9722 103.074 74.2898C102.457 73.6302 101.932 72.6976 101.475 71.5375C101.018 70.3774 100.652 69.0354 100.401 67.4886C100.172 65.9191 100.035 64.2814 100.035 62.5527C100.035 60.8239 100.172 59.1862 100.401 57.6622C100.652 56.1154 101.018 54.7734 101.452 53.6133C101.909 52.476 102.434 51.5661 103.028 50.8837C103.645 50.2014 104.285 49.8602 104.97 49.8602C105.655 49.8602 106.341 50.2014 106.935 50.8837C107.552 51.5661 108.077 52.4987 108.511 53.6588C108.945 54.8189 109.288 56.1609 109.539 57.7077C109.791 59.2544 109.928 60.8467 109.928 62.5527C109.928 64.2586 109.791 65.8509 109.539 67.3976H109.585Z" fill="#E5E4ED"/>
    <path d="M135.766 75.1769C134.51 75.3134 133.55 75.1542 132.865 74.6992C132.179 74.2443 131.654 73.6757 131.288 72.925C130.923 72.1516 130.672 71.31 130.512 70.3774C130.352 69.4448 130.192 68.5122 130.009 67.6251C129.712 66.0556 129.324 64.7591 128.844 63.781C128.364 62.7801 127.862 62.0067 127.29 61.4836C126.742 60.9377 126.148 60.5737 125.554 60.3917C124.96 60.2325 124.412 60.1643 123.864 60.2325C124.503 59.8458 125.143 59.4364 125.76 58.9815C126.377 58.5265 126.948 58.0489 127.45 57.5484C127.953 57.048 128.341 56.5021 128.638 55.9334C128.958 55.3875 129.118 54.7961 129.141 54.1592C129.164 53.2039 128.935 52.4078 128.433 51.8163C127.93 51.2022 127.29 50.7245 126.491 50.3606C125.668 50.0194 124.777 49.7692 123.795 49.6554C122.79 49.519 121.807 49.4735 120.871 49.4735H116.279V49.8829C116.507 49.9284 116.69 50.0194 116.827 50.1331C116.964 50.2468 117.01 50.4288 117.01 50.679V74.449C117.01 74.6992 116.941 74.8812 116.827 74.9949C116.713 75.1087 116.53 75.1997 116.279 75.2906V75.7001H121.191V75.2906C120.734 75.1769 120.482 74.9494 120.482 74.5628V62.0067C120.756 61.8703 121.053 61.7565 121.373 61.5973C121.693 61.4381 122.036 61.2561 122.401 61.0514C123.132 60.8694 123.726 60.9832 124.183 61.4153C124.64 61.8475 125.006 62.5072 125.326 63.3488C125.623 64.1904 125.897 65.1685 126.148 66.3058C126.377 67.4431 126.651 68.6032 126.948 69.7633C127.496 71.9697 128.364 73.5164 129.529 74.4035C130.694 75.2679 132.157 75.7228 133.916 75.7228C134.487 75.7228 135.149 75.7001 135.835 75.6091L135.789 75.1769H135.766ZM122.744 60.0733C122.127 60.6874 121.373 61.2334 120.482 61.6655V49.8602C121.122 49.8602 121.739 49.9511 122.31 50.1559C122.904 50.3378 123.429 50.6335 123.886 51.0202C124.343 51.4069 124.709 51.8846 124.983 52.476C125.234 53.0674 125.371 53.7498 125.371 54.5459C125.371 55.0236 125.28 55.5922 125.097 56.2291C124.914 56.866 124.64 57.5029 124.252 58.1626C123.864 58.8222 123.384 59.4591 122.744 60.096V60.0733Z" fill="#E5E4ED"/>
    <path d="M145.339 49.4735V49.8829C145.978 49.9284 146.184 50.2241 145.955 50.7245C145.316 52.0666 144.699 53.3631 144.105 54.5687C143.602 55.615 143.1 56.6613 142.62 57.7077C142.14 58.754 141.752 59.5729 141.478 60.1643C141.409 60.0051 141.295 59.7548 141.135 59.3909C140.952 59.027 140.769 58.6175 140.564 58.1398C140.358 57.6394 140.107 57.139 139.856 56.5703C139.604 56.0244 139.353 55.4785 139.102 54.9099C138.485 53.6133 137.845 52.203 137.16 50.679C137.023 50.4288 137.023 50.2241 137.16 50.0649C137.297 49.9284 137.502 49.8602 137.799 49.8602V49.4507H132.476V49.8602C132.819 49.8602 133.139 50.1104 133.436 50.6335C133.824 51.4751 134.213 52.3623 134.624 53.2721C135.058 54.182 135.469 55.0918 135.903 56.0244C136.315 56.9343 136.726 57.8441 137.16 58.7313C137.548 59.6184 137.959 60.46 138.348 61.2334V74.4945C138.348 74.722 138.302 74.904 138.211 75.0404C138.119 75.1769 137.914 75.2452 137.662 75.3134V75.7228H142.529V75.3134C142.026 75.1997 141.797 74.9267 141.797 74.4718V60.4827L146.435 50.7473C146.504 50.5653 146.618 50.3833 146.801 50.1786C146.983 49.9966 147.212 49.8829 147.509 49.8829V49.4735H145.361H145.339Z" fill="#E5E4ED"/>
    <path d="M55.8745 72.1971C55.8745 72.1971 55.8973 72.4246 55.8745 72.5383C55.1891 73.7894 54.3438 74.8812 53.3614 75.8593C52.3562 76.8146 51.2596 77.6335 50.026 78.3159C48.8151 78.9755 47.5129 79.4987 46.1422 79.8627C44.7714 80.2039 43.355 80.3858 41.9385 80.3858C41.8472 80.3858 41.7558 80.3858 41.6415 80.3858C41.0704 80.3858 40.4993 80.3631 39.951 80.2948C39.7682 80.2948 39.6083 80.2493 39.4484 80.2266C39.0828 80.1584 38.7401 80.0901 38.3746 80.0219C38.1233 79.9536 37.872 79.8854 37.6207 79.8172C37.3008 79.7262 37.0038 79.6352 36.7069 79.4987C36.6155 79.476 36.5012 79.4305 36.4099 79.3622C35.8616 79.1348 35.359 78.8618 34.8792 78.5434C34.8107 78.5206 34.765 78.4751 34.7193 78.4524C34.3766 78.2249 34.0567 77.952 33.7597 77.679C33.1429 77.1331 32.5946 76.4962 32.1377 75.791C31.4752 74.7675 30.9954 73.6301 30.6756 72.3791C30.3786 71.128 30.31 69.877 30.4471 68.6032C30.5613 67.4204 30.8583 66.3058 31.3838 65.305C31.8864 64.2814 32.5261 63.3715 33.28 62.6209C34.0567 61.8475 34.9477 61.2106 35.9758 60.6874C37.0038 60.187 38.1233 59.8231 39.3341 59.6184V51.2704C39.3341 51.043 39.3113 50.861 39.197 50.77C39.1285 50.679 38.9686 50.588 38.7401 50.5425V50.2013H42.5554V50.5425C42.167 50.6108 41.9614 50.861 41.9614 51.2704V59.4364C43.7891 59.4819 45.3883 59.8231 46.759 60.4827C47.8556 61.0059 48.7923 61.7565 49.5462 62.6891C49.729 62.9166 49.9117 63.1668 50.0945 63.4397V58.5038C50.1173 57.7077 50.1173 56.9115 50.0945 56.1154V51.2477C50.0945 50.8382 49.9117 50.588 49.5462 50.5198V50.1786C49.5462 50.1786 49.6604 50.1786 49.866 50.1786C50.3686 50.2696 51.4652 50.6108 52.2877 52.0211C52.2877 52.0211 52.2877 52.021 52.2877 52.0665C52.2877 52.112 52.3105 52.1348 52.3562 52.203C52.4248 52.385 52.5161 52.658 52.5847 52.9764C52.5847 53.0219 52.5847 53.0446 52.6075 53.1129C52.6304 53.2494 52.6761 53.4313 52.6761 53.5906C52.6761 53.7725 52.6989 53.9318 52.6989 54.1137V73.1752C52.6989 73.4254 52.7446 73.6074 52.836 73.7211C52.9045 73.8349 53.0644 73.9031 53.2929 73.9486V74.2898H49.5005V73.9486C49.7061 73.9258 49.866 73.8349 49.9574 73.7211C50.026 73.5847 50.0716 73.4254 50.0716 73.2207V64.0084C49.8889 63.6672 49.6833 63.326 49.4548 63.0303C48.7237 62.0522 47.8099 61.3016 46.7133 60.7784C45.2512 60.1188 43.6748 59.7548 41.9614 59.7093V73.2435C41.9614 73.6301 42.1442 73.8576 42.5554 73.9486V74.2898H38.7401V73.9486C38.9229 73.9258 39.0828 73.8349 39.1742 73.7211C39.2656 73.5847 39.3113 73.4254 39.3113 73.1752V60.0505C38.6031 60.278 37.872 60.6192 37.1638 61.0741C36.4556 61.5291 35.8159 62.1205 35.2676 62.8483C34.6964 63.5535 34.2167 64.4178 33.8283 65.4187C33.4399 66.3968 33.2114 67.5569 33.1201 68.8761C33.0287 70.1499 33.0744 71.401 33.3028 72.6293C33.5084 73.8349 33.874 74.9494 34.3766 75.9275C34.605 76.428 34.902 76.8601 35.2219 77.2923C35.5189 77.6563 35.8159 77.9974 36.1586 78.2932C36.1814 78.3386 36.2271 78.3614 36.2956 78.4296C36.5469 78.6571 36.8439 78.8618 37.1181 79.021C37.1866 79.0665 37.3008 79.112 37.3694 79.1575C37.6207 79.294 37.872 79.4077 38.1461 79.4987C38.3974 79.6125 38.6716 79.6807 38.9686 79.7262C39.357 79.7944 39.7682 79.8854 40.1794 79.9082C40.248 79.9082 40.3165 79.9309 40.3622 79.9309C40.4536 79.9309 40.5678 79.9309 40.6592 79.9536C41.0247 79.9764 41.4131 79.9991 41.8015 79.9991C41.9842 79.9991 42.1898 79.9991 42.3726 79.9991C43.4921 79.9764 44.6343 79.7944 45.7995 79.4987C47.1474 79.1348 48.4267 78.6343 49.6147 77.9747C50.8256 77.3151 51.8993 76.4962 52.8817 75.5181C53.8412 74.54 54.5951 73.4254 55.1663 72.1744C55.2348 71.9469 55.3947 71.8787 55.6232 71.9697C55.7602 72.0151 55.8059 72.0834 55.8516 72.1971H55.8745Z" fill="#E5E4ED"/>
  </g>
  <defs>
    <clipPath id="clip0_30_51">
      <rect width="147.509" height="81" fill="white"/>
    </clipPath>
  </defs>
</svg>