<svg width="129" height="129" viewBox="0 0 129 129" fill="none" xmlns="http://www.w3.org/2000/svg">
<g id="geo:turf-point-grid">
<path id="Vector" d="M14.8711 121.642C19.0204 121.642 22.3841 118.278 22.3841 114.129C22.3841 109.979 19.0204 106.616 14.8711 106.616C10.7218 106.616 7.35815 109.979 7.35815 114.129C7.35815 118.278 10.7218 121.642 14.8711 121.642Z" fill="#644DA0" fill-opacity="0.1"/>
<path id="Vector_2" d="M114.129 22.3843C118.278 22.3843 121.642 19.0207 121.642 14.8714C121.642 10.7221 118.278 7.3584 114.129 7.3584C109.98 7.3584 106.616 10.7221 106.616 14.8714C106.616 19.0207 109.98 22.3843 114.129 22.3843Z" fill="#644DA0" fill-opacity="0.1"/>
<path id="Vector_3" d="M89.3145 22.3843C93.4638 22.3843 96.8274 19.0207 96.8274 14.8714C96.8274 10.7221 93.4638 7.3584 89.3145 7.3584C85.1652 7.3584 81.8015 10.7221 81.8015 14.8714C81.8015 19.0207 85.1652 22.3843 89.3145 22.3843Z" fill="#644DA0" fill-opacity="0.1"/>
<path id="Vector_4" d="M64.5 22.3843C68.6493 22.3843 72.013 19.0207 72.013 14.8714C72.013 10.7221 68.6493 7.3584 64.5 7.3584C60.3507 7.3584 56.9871 10.7221 56.9871 14.8714C56.9871 19.0207 60.3507 22.3843 64.5 22.3843Z" fill="#644DA0" fill-opacity="0.1"/>
<path id="Vector_5" d="M39.6856 22.3843C43.8349 22.3843 47.1985 19.0207 47.1985 14.8714C47.1985 10.7221 43.8349 7.3584 39.6856 7.3584C35.5363 7.3584 32.1726 10.7221 32.1726 14.8714C32.1726 19.0207 35.5363 22.3843 39.6856 22.3843Z" fill="#644DA0" fill-opacity="0.1"/>
<path id="Vector_6" d="M14.8711 22.3843C19.0204 22.3843 22.3841 19.0207 22.3841 14.8714C22.3841 10.7221 19.0204 7.3584 14.8711 7.3584C10.7218 7.3584 7.35815 10.7221 7.35815 14.8714C7.35815 19.0207 10.7218 22.3843 14.8711 22.3843Z" fill="#644DA0" fill-opacity="0.1"/>
<path id="Vector_7" d="M114.129 121.642C118.278 121.642 121.642 118.278 121.642 114.129C121.642 109.979 118.278 106.616 114.129 106.616C109.98 106.616 106.616 109.979 106.616 114.129C106.616 118.278 109.98 121.642 114.129 121.642Z" fill="#644DA0" fill-opacity="0.1"/>
<path id="Vector_8" d="M114.129 96.8272C118.278 96.8272 121.642 93.4635 121.642 89.3142C121.642 85.1649 118.278 81.8013 114.129 81.8013C109.98 81.8013 106.616 85.1649 106.616 89.3142C106.616 93.4635 109.98 96.8272 114.129 96.8272Z" fill="#644DA0" fill-opacity="0.1"/>
<path id="Vector_9" d="M114.129 72.0127C118.278 72.0127 121.642 68.6491 121.642 64.4998C121.642 60.3505 118.278 56.9868 114.129 56.9868C109.98 56.9868 106.616 60.3505 106.616 64.4998C106.616 68.6491 109.98 72.0127 114.129 72.0127Z" fill="#644DA0" fill-opacity="0.1"/>
<path id="Vector_10" d="M114.129 47.1983C118.278 47.1983 121.642 43.8346 121.642 39.6853C121.642 35.536 118.278 32.1724 114.129 32.1724C109.98 32.1724 106.616 35.536 106.616 39.6853C106.616 43.8346 109.98 47.1983 114.129 47.1983Z" fill="#644DA0" fill-opacity="0.1"/>
<path id="Vector_11" d="M89.6189 121.642C93.7682 121.642 97.1319 118.278 97.1319 114.129C97.1319 109.979 93.7682 106.616 89.6189 106.616C85.4696 106.616 82.106 109.979 82.106 114.129C82.106 118.278 85.4696 121.642 89.6189 121.642Z" fill="#644DA0" fill-opacity="0.1"/>
<path id="Vector_12" d="M89.6189 96.8272C93.7682 96.8272 97.1319 93.4635 97.1319 89.3142C97.1319 85.1649 93.7682 81.8013 89.6189 81.8013C85.4696 81.8013 82.106 85.1649 82.106 89.3142C82.106 93.4635 85.4696 96.8272 89.6189 96.8272Z" fill="#644DA0" fill-opacity="0.1"/>
<path id="Vector_13" d="M89.6189 72.0127C93.7682 72.0127 97.1319 68.6491 97.1319 64.4998C97.1319 60.3505 93.7682 56.9868 89.6189 56.9868C85.4696 56.9868 82.106 60.3505 82.106 64.4998C82.106 68.6491 85.4696 72.0127 89.6189 72.0127Z" fill="#644DA0" fill-opacity="0.1"/>
<path id="Vector_14" d="M89.6189 47.1983C93.7682 47.1983 97.1319 43.8346 97.1319 39.6853C97.1319 35.536 93.7682 32.1724 89.6189 32.1724C85.4696 32.1724 82.106 35.536 82.106 39.6853C82.106 43.8346 85.4696 47.1983 89.6189 47.1983Z" fill="#644DA0" fill-opacity="0.1"/>
<path id="Vector_15" d="M65.1089 121.642C69.2582 121.642 72.6219 118.278 72.6219 114.129C72.6219 109.979 69.2582 106.616 65.1089 106.616C60.9596 106.616 57.5959 109.979 57.5959 114.129C57.5959 118.278 60.9596 121.642 65.1089 121.642Z" fill="#644DA0" fill-opacity="0.1"/>
<path id="Vector_16" d="M65.1089 96.8272C69.2582 96.8272 72.6219 93.4635 72.6219 89.3142C72.6219 85.1649 69.2582 81.8013 65.1089 81.8013C60.9596 81.8013 57.5959 85.1649 57.5959 89.3142C57.5959 93.4635 60.9596 96.8272 65.1089 96.8272Z" fill="#644DA0" fill-opacity="0.1"/>
<path id="Vector_17" d="M65.1089 72.0127C69.2582 72.0127 72.6219 68.6491 72.6219 64.4998C72.6219 60.3505 69.2582 56.9868 65.1089 56.9868C60.9596 56.9868 57.5959 60.3505 57.5959 64.4998C57.5959 68.6491 60.9596 72.0127 65.1089 72.0127Z" fill="#644DA0" fill-opacity="0.1"/>
<path id="Vector_18" d="M65.1089 47.1983C69.2582 47.1983 72.6219 43.8346 72.6219 39.6853C72.6219 35.536 69.2582 32.1724 65.1089 32.1724C60.9596 32.1724 57.5959 35.536 57.5959 39.6853C57.5959 43.8346 60.9596 47.1983 65.1089 47.1983Z" fill="#644DA0" fill-opacity="0.1"/>
<path id="Vector_19" d="M39.3089 121.642C43.4582 121.642 46.8218 118.278 46.8218 114.129C46.8218 109.979 43.4582 106.616 39.3089 106.616C35.1596 106.616 31.7959 109.979 31.7959 114.129C31.7959 118.278 35.1596 121.642 39.3089 121.642Z" fill="#644DA0" fill-opacity="0.1"/>
<path id="Vector_20" d="M39.3089 96.8272C43.4582 96.8272 46.8218 93.4635 46.8218 89.3142C46.8218 85.1649 43.4582 81.8013 39.3089 81.8013C35.1596 81.8013 31.7959 85.1649 31.7959 89.3142C31.7959 93.4635 35.1596 96.8272 39.3089 96.8272Z" fill="#644DA0" fill-opacity="0.1"/>
<path id="Vector_21" d="M39.3089 72.0127C43.4582 72.0127 46.8218 68.6491 46.8218 64.4998C46.8218 60.3505 43.4582 56.9868 39.3089 56.9868C35.1596 56.9868 31.7959 60.3505 31.7959 64.4998C31.7959 68.6491 35.1596 72.0127 39.3089 72.0127Z" fill="#644DA0" fill-opacity="0.1"/>
<path id="Vector_22" d="M39.3089 47.1983C43.4582 47.1983 46.8218 43.8346 46.8218 39.6853C46.8218 35.536 43.4582 32.1724 39.3089 32.1724C35.1596 32.1724 31.7959 35.536 31.7959 39.6853C31.7959 43.8346 35.1596 47.1983 39.3089 47.1983Z" fill="#644DA0" fill-opacity="0.1"/>
<path id="Vector_23" d="M14.7988 96.8272C18.9481 96.8272 22.3118 93.4635 22.3118 89.3142C22.3118 85.1649 18.9481 81.8013 14.7988 81.8013C10.6496 81.8013 7.28589 85.1649 7.28589 89.3142C7.28589 93.4635 10.6496 96.8272 14.7988 96.8272Z" fill="#644DA0" fill-opacity="0.1"/>
<path id="Vector_24" d="M14.7988 72.0127C18.9481 72.0127 22.3118 68.6491 22.3118 64.4998C22.3118 60.3505 18.9481 56.9868 14.7988 56.9868C10.6496 56.9868 7.28589 60.3505 7.28589 64.4998C7.28589 68.6491 10.6496 72.0127 14.7988 72.0127Z" fill="#644DA0" fill-opacity="0.1"/>
<path id="Vector_25" d="M14.7988 47.1983C18.9481 47.1983 22.3118 43.8346 22.3118 39.6853C22.3118 35.536 18.9481 32.1724 14.7988 32.1724C10.6496 32.1724 7.28589 35.536 7.28589 39.6853C7.28589 43.8346 10.6496 47.1983 14.7988 47.1983Z" fill="#644DA0" fill-opacity="0.1"/>
<path id="Vector_26" d="M114.129 22.3843C118.278 22.3843 121.642 19.0207 121.642 14.8714C121.642 10.7221 118.278 7.3584 114.129 7.3584C109.98 7.3584 106.616 10.7221 106.616 14.8714C106.616 19.0207 109.98 22.3843 114.129 22.3843Z" fill="#644DA0" fill-opacity="0.1"/>
<path id="Vector_27" d="M89.3145 22.3843C93.4638 22.3843 96.8274 19.0207 96.8274 14.8714C96.8274 10.7221 93.4638 7.3584 89.3145 7.3584C85.1652 7.3584 81.8015 10.7221 81.8015 14.8714C81.8015 19.0207 85.1652 22.3843 89.3145 22.3843Z" fill="#644DA0" fill-opacity="0.1"/>
<path id="Vector_28" d="M64.5 22.3843C68.6493 22.3843 72.013 19.0207 72.013 14.8714C72.013 10.7221 68.6493 7.3584 64.5 7.3584C60.3507 7.3584 56.9871 10.7221 56.9871 14.8714C56.9871 19.0207 60.3507 22.3843 64.5 22.3843Z" fill="#644DA0" fill-opacity="0.1"/>
<path id="Vector_29" d="M39.6856 22.3843C43.8349 22.3843 47.1985 19.0207 47.1985 14.8714C47.1985 10.7221 43.8349 7.3584 39.6856 7.3584C35.5363 7.3584 32.1726 10.7221 32.1726 14.8714C32.1726 19.0207 35.5363 22.3843 39.6856 22.3843Z" fill="#644DA0" fill-opacity="0.1"/>
<path id="Vector_30" d="M14.8711 22.3843C19.0204 22.3843 22.3841 19.0207 22.3841 14.8714C22.3841 10.7221 19.0204 7.3584 14.8711 7.3584C10.7218 7.3584 7.35815 10.7221 7.35815 14.8714C7.35815 19.0207 10.7218 22.3843 14.8711 22.3843Z" fill="#644DA0" fill-opacity="0.1"/>
</g>
</svg>
